# Blender 5.0.1
# www.blender.org
mtllib MobBossForcefield.mtl
o cuboid
v 3.000000 3.528612 3.000000
v 3.000000 3.528612 -3.000000
v 3.000000 -3.096388 3.000000
v 3.000000 -3.096388 -3.000000
v -3.000000 3.528612 3.000000
v -3.000000 3.528612 -3.000000
v -3.000000 -3.096388 3.000000
v -3.000000 -3.096388 -3.000000
vn 1.0000 -0.0000 -0.0000
vn -1.0000 -0.0000 -0.0000
vn -0.0000 1.0000 -0.0000
vn -0.0000 -1.0000 -0.0000
vn -0.0000 -0.0000 1.0000
vn -0.0000 -0.0000 -1.0000
vt 0.187500 1.000000
vt 0.000000 1.000000
vt 0.000000 0.792969
vt 0.187500 0.792969
vt 0.376953 0.792969
vt 0.376953 1.000000
vt 0.189453 1.000000
vt 0.189453 0.792969
vt 0.378906 0.812500
vt 0.566406 0.812500
vt 0.566406 1.000000
vt 0.378906 1.000000
vt 0.566406 0.623047
vt 0.566406 0.810547
vt 0.378906 0.810547
vt 0.378906 0.623047
vt 0.187500 0.583984
vt 0.187500 0.791016
vt 0.000000 0.791016
vt 0.000000 0.583984
vt 0.376953 0.791016
vt 0.189453 0.791016
vt 0.189453 0.583984
vt 0.376953 0.583984
s 1
usemtl m_02ea207b-b066-643a-73cd-b946ab96fdb8
f 2/1/1 1/2/1 3/3/1 4/4/1
f 7/5/2 5/6/2 6/7/2 8/8/2
f 5/9/3 1/10/3 2/11/3 6/12/3
f 4/13/4 3/14/4 7/15/4 8/16/4
f 3/17/5 1/18/5 5/19/5 7/20/5
f 6/21/6 2/22/6 4/23/6 8/24/6
