# Made in Blockbench 5.0.4
mtllib apple.mtl

o cuboid
v 0.15625 0.3125 0.15625
v 0.15625 0.3125 -0.15625
v 0.15625 0 0.15625
v 0.15625 0 -0.15625
v -0.15625 0.3125 0.15625
v -0.15625 0.3125 -0.15625
v -0.15625 0 0.15625
v -0.15625 0 -0.15625
vt 0.3125 1
vt 0 1
vt 0 0.6875
vt 0.3125 0.6875
vt 0.3125 0.375
vt 0.3125 0.6875
vt 0 0.6875
vt 0 0.375
vt 0.3125 0.6875
vt 0.625 0.6875
vt 0.625 1
vt 0.3125 1
vt 0.625 0.375
vt 0.625 0.6875
vt 0.3125 0.6875
vt 0.3125 0.375
vt 0.3125 0.0625
vt 0.3125 0.375
vt 0 0.375
vt 0 0.0625
vt 0.9375 1
vt 0.625 1
vt 0.625 0.6875
vt 0.9375 0.6875
vn 1 0 0
vn -1 0 0
vn 0 1 0
vn 0 -1 0
vn 0 0 1
vn 0 0 -1
usemtl m_89eb1c4a-b6d6-5361-4112-b294e297ec9c
f 2/1/1 1/2/1 3/3/1 4/4/1
f 7/5/2 5/6/2 6/7/2 8/8/2
f 5/9/3 1/10/3 2/11/3 6/12/3
f 4/13/4 3/14/4 7/15/4 8/16/4
f 3/17/5 1/18/5 5/19/5 7/20/5
f 6/21/6 2/22/6 4/23/6 8/24/6
o cuboid
v 0.03125 0.375 0.03125
v 0.03125 0.375 -0.03125
v 0.03125 0.3125 0.03125
v 0.03125 0.3125 -0.03125
v -0.03125 0.375 0.03125
v -0.03125 0.375 -0.03125
v -0.03125 0.3125 0.03125
v -0.03125 0.3125 -0.03125
vt 0.6875 0.6875
vt 0.625 0.6875
vt 0.625 0.625
vt 0.6875 0.625
vt 0.6875 0.5625
vt 0.6875 0.625
vt 0.625 0.625
vt 0.625 0.5625
vt 0.4375 0.3125
vt 0.5 0.3125
vt 0.5 0.375
vt 0.4375 0.375
vt 0.6875 0.5
vt 0.6875 0.5625
vt 0.625 0.5625
vt 0.625 0.5
vt 0.5625 0.3125
vt 0.5625 0.375
vt 0.5 0.375
vt 0.5 0.3125
vt 0.6875 0.5
vt 0.625 0.5
vt 0.625 0.4375
vt 0.6875 0.4375
vn 1 0 0
vn -1 0 0
vn 0 1 0
vn 0 -1 0
vn 0 0 1
vn 0 0 -1
usemtl m_89eb1c4a-b6d6-5361-4112-b294e297ec9c
f 10/25/7 9/26/7 11/27/7 12/28/7
f 15/29/8 13/30/8 14/31/8 16/32/8
f 13/33/9 9/34/9 10/35/9 14/36/9
f 12/37/10 11/38/10 15/39/10 16/40/10
f 11/41/11 9/42/11 13/43/11 15/44/11
f 14/45/12 10/46/12 12/47/12 16/48/12
o plane
v 0.003582884239606801 0.3408967754996321 0.01320682133932045
v -0.03282732884973462 0.2975047732895504 -0.01320682148004505
v -0.09217267115026538 0.4212452267104496 0.01320682148004505
v -0.1285828842396068 0.3778532245003679 -0.01320682133932045
vt 0.4375 0.3125
vt 0.4375 0.375
vt 0.3125 0.375
vt 0.3125 0.3125
vn 0.27165379651397464 0.3237443895247188 -0.9063077761394367
usemtl m_89eb1c4a-b6d6-5361-4112-b294e297ec9c
f 17/49/13 18/50/13 20/51/13 19/52/13