# Made in Blockbench 5.0.5
mtllib Enemy_jetpack.mtl

o cylinder
v 0.5 0 0.1250000000000001
v 0.29759603533705636 0.4729390759800719 -0.10252475799314142
v 0.5742670049293999 0.07800924186870895 0.22108485124330624
v 0.3718630402664562 0.5509483178487808 -0.0064399067498352724
v 0.6344228471949305 0.0429311480907405 0.09465649028425897
v 0.43201888253198684 0.5158702240708124 -0.13286826770888255
v 0.5601558422655306 -0.03507809377796844 -0.0014283609590471646
v 0.357751877602587 0.43786098220210345 -0.22895311895218873
v 0.42573299507060014 -0.07800924186870895 0.028915148756693973
v 0.22332903040765645 0.39492983411136295 -0.19860960923644755
v 0.3655771528050695 -0.0429311480907405 0.15534350971574126
v 0.16317318814212584 0.4300079278893314 -0.07218124827740027
v 0.43984415773446933 0.03507809377796844 0.2514283609590474
v 0.2374401930715257 0.5080171697580403 0.02390360296590585
v 0.5456039482981114 0.20189016653895342 0.1950531626235344
v 0.38207768740375014 0.14966414789942525 0.23196623796578916
v 0.29149508029165133 0.05287155380048781 0.11135201801044564
v 0.3644387340739137 0.008304978341078545 -0.04617527728715262
v 0.5279649949682749 0.06053099698060671 -0.08308835262940739
v 0.6185476020803737 0.15732359107954416 0.0375258673259361
vt 0.497021875 0.796875
vt 0.4789796875 0.828125
vt 0.4609375 0.796875
vt 0.131965625 0.6875
vt 0.12706875 0.5778859375000001
vt 0.171875 0.5778859375000001
vt 0.16804843749999998 0.687471875
vt 0.4789796875 0.6875
vt 0.497021875 0.71875
vt 0.4609375 0.71875
vt 0.4789796875 0.765625
vt 0.497021875 0.796875
vt 0.4609375 0.796875
vt 0.3007015625 0.9999750000000001
vt 0.296875 0.8903875
vt 0.34168125 0.8903875
vt 0.336784375 1
vt 0.497021875 0.71875
vt 0.4789796875 0.75
vt 0.4609375 0.71875
vt 0.4428953125 0.765625
vt 0.4789796875 0.765625
vt 0.4609375 0.796875
vt 0.3647703125 1
vt 0.3608640625 0.890346875
vt 0.4047609375 0.890346875
vt 0.4008546875 1
vt 0.4789796875 0.75
vt 0.4428953125 0.75
vt 0.4609375 0.71875
vt 0.424853125 0.796875
vt 0.4428953125 0.765625
vt 0.4609375 0.796875
vt 0.194465625 0.6875
vt 0.18956875 0.5778859375000001
vt 0.234375 0.5778859375000001
vt 0.23054843749999998 0.687471875
vt 0.4428953125 0.75
vt 0.424853125 0.71875
vt 0.4609375 0.71875
vt 0.4428953125 0.828125
vt 0.424853125 0.796875
vt 0.4609375 0.796875
vt 0.3007015625 0.8281000000000001
vt 0.296875 0.7185125
vt 0.34168125 0.7185125
vt 0.336784375 0.828125
vt 0.424853125 0.71875
vt 0.4428953125 0.6875
vt 0.4609375 0.71875
vt 0.4789796875 0.828125
vt 0.4428953125 0.828125
vt 0.4609375 0.796875
vt 0.3647703125 0.828125
vt 0.3608640625 0.718471875
vt 0.4047609375 0.718471875
vt 0.4008546875 0.828125
vt 0.4428953125 0.6875
vt 0.4789796875 0.6875
vt 0.4609375 0.71875
vt 0.4008546875 0.6862609375
vt 0.4047609375 0.718471875
vt 0.3608640625 0.718471875
vt 0.3647703125 0.6862609375
vt 0.336784375 0.6864359375
vt 0.34168125 0.7185125
vt 0.296875 0.7185125
vt 0.3007015625 0.68653125
vt 0.23054843749999998 0.5459015625
vt 0.234375 0.5778859375000001
vt 0.18956875 0.5778859375000001
vt 0.194465625 0.5458125
vt 0.4008546875 0.8581359375
vt 0.4047609375 0.890346875
vt 0.3608640625 0.890346875
vt 0.3647703125 0.8581359375
vt 0.336784375 0.8583109375
vt 0.34168125 0.8903875
vt 0.296875 0.8903875
vt 0.3007015625 0.85840625
vt 0.16804843749999998 0.5459015625
vt 0.171875 0.5778859375000001
vt 0.12706875 0.5778859375000001
vt 0.131965625 0.5458125
vn 0.35982927051189983 -0.840780579520128 0.4044884586544739
vn 0.8139993099750191 0.5353178417975557 0.22547711993326466
vn -0.35982927051189983 0.840780579520128 -0.4044884586544739
vn 0.35982927051189983 -0.840780579520128 0.4044884586544739
vn 0.760391773739559 0.08990573995905281 -0.6432117134751377
vn -0.35982927051189983 0.840780579520128 -0.4044884586544739
vn 0.35982927051189983 -0.840780579520128 0.4044884586544739
vn -0.08193798187848635 -0.3912966511478928 -0.9166095667873675
vn -0.35982927051189983 0.840780579520128 -0.4044884586544739
vn 0.35982927051189983 -0.840780579520128 0.4044884586544739
vn -0.8614832258549727 -0.42436646128691435 -0.2788543671978835
vn -0.35982927051189983 0.840780579520128 -0.4044884586544739
vn 0.35982927051189983 -0.840780579520128 0.4044884586544739
vn -0.8051196297305906 0.014605804161115264 0.5929325866464789
vn -0.35982927051189983 0.840780579520128 -0.4044884586544739
vn 0.35982927051189983 -0.840780579520128 0.4044884586544739
vn 0.03066443383193755 0.5111029231037612 0.8589723479207917
vn -0.35982927051189983 0.840780579520128 -0.4044884586544739
vn 0.14203077153670549 0.2349240787838431 0.9615809571451854
vn -0.6829417039520472 -0.22632938740873745 0.6945254764213189
vn -0.7436867289574057 -0.6489059034196689 -0.1607830142761901
vn 0.03251206252323725 -0.6427625655284921 -0.7653752348656939
vn 0.8452092163370473 -0.15282646310409045 -0.5121185925095951
vn 0.8969397098762417 0.29081349496490766 0.3330565537463857
usemtl m_887c00e4-d7b8-8563-a78a-4c3775652e6a
f 5/1/1 3/2/1 1/3/1
f 4/4/2 15/5/2 20/6/2 6/7/2
f 4/8/3 6/9/3 2/10/3
f 7/11/4 5/12/4 1/13/4
f 6/14/5 20/15/5 19/16/5 8/17/5
f 6/18/6 8/19/6 2/20/6
f 9/21/7 7/22/7 1/23/7
f 8/24/8 19/25/8 18/26/8 10/27/8
f 8/28/9 10/29/9 2/30/9
f 11/31/10 9/32/10 1/33/10
f 10/34/11 18/35/11 17/36/11 12/37/11
f 10/38/12 12/39/12 2/40/12
f 13/41/13 11/42/13 1/43/13
f 12/44/14 17/45/14 16/46/14 14/47/14
f 12/48/15 14/49/15 2/50/15
f 3/51/16 13/52/16 1/53/16
f 14/54/17 16/55/17 15/56/17 4/57/17
f 14/58/18 4/59/18 2/60/18
f 3/61/19 15/62/19 16/63/19 13/64/19
f 13/65/20 16/66/20 17/67/20 11/68/20
f 11/69/21 17/70/21 18/71/21 9/72/21
f 9/73/22 18/74/22 19/75/22 7/76/22
f 7/77/23 19/78/23 20/79/23 5/80/23
f 5/81/24 20/82/24 15/83/24 3/84/24
o cuboid
v 0.25 0.625 0.0625
v 0.25 0.625 -0.1875
v 0.25 0.0625 0.0625
v 0.25 0.0625 -0.1875
v -0.25 0.625 0.0625
v -0.25 0.625 -0.1875
v -0.25 0.0625 0.0625
v -0.25 0.0625 -0.1875
vt 0.0625 0.84375
vt 0 0.84375
vt 0 0.703125
vt 0.0625 0.703125
vt 0.140625 0.703125
vt 0.140625 0.84375
vt 0.078125 0.84375
vt 0.078125 0.703125
vt 0.15625 0.78125
vt 0.28125 0.78125
vt 0.28125 0.84375
vt 0.15625 0.84375
vt 0.28125 0.703125
vt 0.28125 0.765625
vt 0.15625 0.765625
vt 0.15625 0.703125
vt 0.125 0.859375
vt 0.125 1
vt 0 1
vt 0 0.859375
vt 0.265625 1
vt 0.140625 1
vt 0.140625 0.859375
vt 0.265625 0.859375
vn 1 0 0
vn -1 0 0
vn 0 1 0
vn 0 -1 0
vn 0 0 1
vn 0 0 -1
usemtl m_887c00e4-d7b8-8563-a78a-4c3775652e6a
f 22/85/25 21/86/25 23/87/25 24/88/25
f 27/89/26 25/90/26 26/91/26 28/92/26
f 25/93/27 21/94/27 22/95/27 26/96/27
f 24/97/28 23/98/28 27/99/28 28/100/28
f 23/101/29 21/102/29 25/103/29 27/104/29
f 26/105/30 22/106/30 24/107/30 28/108/30
o cylinder
v -0.5 0 0.1250000000000001
v -0.29828771866524606 0.4585750493277402 -0.1307876652475441
v -0.42052569875068857 0.0301150396906264 0.24166296885442362
v -0.21881341741593457 0.4886900890183666 -0.014124696393120584
v -0.36603659103477476 -0.052470747388568384 0.1365732291583146
v -0.16432430970002082 0.4061043019391718 -0.1192144360892296
v -0.44551089228408625 -0.08258578707919478 0.019910260303891092
v -0.24379861094933225 0.3759892622485454 -0.2358774049436531
v -0.5794743012493114 -0.0301150396906264 0.008337031145576601
v -0.3777620199145575 0.4284600096371138 -0.2474506341019676
v -0.6339634089652253 0.052470747388568384 0.11342677084168562
v -0.4322511276304713 0.5110457967163086 -0.14236089440585858
v -0.5544891077159138 0.08258578707919478 0.23008973969610913
v -0.3527768263811598 0.5411608364069349 -0.025697925551435075
v -0.35807562697206397 0.14042808188151246 0.21379319342589842
v -0.5210429782957428 0.20425908461531522 0.19971428548558112
v -0.6181423999159557 0.16573656925107833 0.05407938867133967
v -0.5522744702124899 0.06338305115303873 -0.07747660020258451
v -0.3893071188888111 -0.0004479515807640083 -0.06339769226226721
v -0.29220769726859813 0.038074563783472876 0.08223720455197424
vt 0.512646875 0.640625
vt 0.4946046875 0.671875
vt 0.4765625 0.640625
vt 0.256965625 0.65625
vt 0.25206875 0.5466359375000001
vt 0.296875 0.5466359375000001
vt 0.2930484375 0.656221875
vt 0.4946046875 0.53125
vt 0.512646875 0.5625
vt 0.4765625 0.5625
vt 0.4946046875 0.609375
vt 0.512646875 0.640625
vt 0.4765625 0.640625
vt 0.003826562500000002 0.6874750000000001
vt 0 0.5778875
vt 0.044806250000000006 0.5778875
vt 0.039909375 0.6875
vt 0.512646875 0.5625
vt 0.4946046875 0.59375
vt 0.4765625 0.5625
vt 0.4585203125 0.609375
vt 0.4946046875 0.609375
vt 0.4765625 0.640625
vt 0.3803953125 0.65625
vt 0.3764890625 0.546596875
vt 0.4203859375 0.546596875
vt 0.4164796875 0.65625
vt 0.4946046875 0.59375
vt 0.4585203125 0.59375
vt 0.4765625 0.5625
vt 0.440478125 0.640625
vt 0.4585203125 0.609375
vt 0.4765625 0.640625
vt 0.319465625 0.65625
vt 0.31456875 0.5466359375000001
vt 0.359375 0.5466359375000001
vt 0.3555484375 0.656221875
vt 0.4585203125 0.59375
vt 0.440478125 0.5625
vt 0.4765625 0.5625
vt 0.4585203125 0.671875
vt 0.440478125 0.640625
vt 0.4765625 0.640625
vt 0.0663265625 0.6874750000000001
vt 0.0625 0.5778875
vt 0.10730625 0.5778875
vt 0.102409375 0.6875
vt 0.440478125 0.5625
vt 0.4585203125 0.53125
vt 0.4765625 0.5625
vt 0.4946046875 0.671875
vt 0.4585203125 0.671875
vt 0.4765625 0.640625
vt 0.4272703125 1
vt 0.4233640625 0.890346875
vt 0.4672609375 0.890346875
vt 0.4633546875 1
vt 0.4585203125 0.53125
vt 0.4946046875 0.53125
vt 0.4765625 0.5625
vt 0.4633546875 0.8581359375
vt 0.4672609375 0.890346875
vt 0.4233640625 0.890346875
vt 0.4272703125 0.8581359375
vt 0.102409375 0.5458109375
vt 0.10730625 0.5778875
vt 0.0625 0.5778875
vt 0.0663265625 0.54590625
vt 0.3555484375 0.5146515625
vt 0.359375 0.5466359375000001
vt 0.31456875 0.5466359375000001
vt 0.319465625 0.5145625
vt 0.4164796875 0.5143859375
vt 0.4203859375 0.546596875
vt 0.3764890625 0.546596875
vt 0.3803953125 0.5143859375
vt 0.039909375 0.5458109375
vt 0.044806250000000006 0.5778875
vt 0 0.5778875
vt 0.003826562500000002 0.54590625
vt 0.2930484375 0.5146515625
vt 0.296875 0.5466359375000001
vt 0.25206875 0.5466359375000001
vt 0.256965625 0.5145625
vn -0.3585996112617848 -0.8152445321382048 0.45473362710674525
vn 0.8798932781124997 -0.04209971885814676 0.4733026862426459
vn 0.3585996112617848 0.8152445321382048 -0.45473362710674525
vn -0.3585996112617848 -0.8152445321382048 0.45473362710674525
vn 0.7810081274498172 -0.4860441594670382 -0.3921573407515287
vn 0.3585996112617848 0.8152445321382048 -0.45473362710674525
vn -0.3585996112617848 -0.8152445321382048 0.45473362710674525
vn -0.07413763019815522 -0.39157391262507835 -0.9171551028806901
vn 0.3585996112617848 0.8152445321382048 -0.45473362710674525
vn -0.3585996112617848 -0.8152445321382048 0.45473362710674525
vn -0.8325716309560172 0.14968130256469614 -0.5333104039766837
vn 0.3585996112617848 0.8152445321382048 -0.45473362710674525
vn -0.3585996112617848 -0.8152445321382048 0.45473362710674525
vn -0.7364331217863282 0.5873814964187513 0.33563258900308157
vn 0.3585996112617848 0.8152445321382048 -0.45473362710674525
vn -0.3585996112617848 -0.8152445321382048 0.45473362710674525
vn 0.12523595905658194 0.5077414484923197 0.8523582439573746
vn 0.3585996112617848 0.8152445321382048 -0.45473362710674525
vn 0.009983611629258623 0.23961760524408884 0.9708160128242241
vn -0.8214704677850009 0.3400842332042765 0.45774336137507354
vn -0.9147843540980239 -0.07971260155579422 -0.39599935183112167
vn -0.1839299733395847 -0.6350692895632737 -0.7502378038734778
vn 0.6597574787919237 -0.7077244255303334 -0.2526780692618254
vn 0.7620550908448644 -0.267503884057568 0.5896725451736251
usemtl m_887c00e4-d7b8-8563-a78a-4c3775652e6a
f 33/109/31 31/110/31 29/111/31
f 32/112/32 43/113/32 48/114/32 34/115/32
f 32/116/33 34/117/33 30/118/33
f 35/119/34 33/120/34 29/121/34
f 34/122/35 48/123/35 47/124/35 36/125/35
f 34/126/36 36/127/36 30/128/36
f 37/129/37 35/130/37 29/131/37
f 36/132/38 47/133/38 46/134/38 38/135/38
f 36/136/39 38/137/39 30/138/39
f 39/139/40 37/140/40 29/141/40
f 38/142/41 46/143/41 45/144/41 40/145/41
f 38/146/42 40/147/42 30/148/42
f 41/149/43 39/150/43 29/151/43
f 40/152/44 45/153/44 44/154/44 42/155/44
f 40/156/45 42/157/45 30/158/45
f 31/159/46 41/160/46 29/161/46
f 42/162/47 44/163/47 43/164/47 32/165/47
f 42/166/48 32/167/48 30/168/48
f 31/169/49 43/170/49 44/171/49 41/172/49
f 41/173/50 44/174/50 45/175/50 39/176/50
f 39/177/51 45/178/51 46/179/51 37/180/51
f 37/181/52 46/182/52 47/183/52 35/184/52
f 35/185/53 47/186/53 48/187/53 33/188/53
f 33/189/54 48/190/54 43/191/54 31/192/54