# Made in Blockbench 5.0.4
mtllib cookie.mtl

o cylinder
v 0 0 0
v 0 0.0625 0
v 0.09060921676911456 0 0.21875
v 0.09060921676911456 0.0625 0.21875
v 0.21875 0 0.09060921676911457
v 0.21875 0.0625 0.09060921676911457
v 0.21875 0 -0.09060921676911454
v 0.21875 0.0625 -0.09060921676911454
v 0.09060921676911457 0 -0.21875
v 0.09060921676911457 0.0625 -0.21875
v -0.09060921676911453 0 -0.21875000000000003
v -0.09060921676911453 0.0625 -0.21875000000000003
v -0.21874999999999997 0 -0.09060921676911468
v -0.21874999999999997 0.0625 -0.09060921676911468
v -0.21874999999999997 0 0.0906092167691146
v -0.21874999999999997 0.0625 0.0906092167691146
v -0.0906092167691147 0 0.21874999999999997
v -0.0906092167691147 0.0625 0.21874999999999997
vt 0.4375 0.87185625
vt 0.30935625 1
vt 0.21875 0.78125
vt 0 0.1875
vt 0.1875 0.1875
vt 0.1875 0.25
vt 0 0.25
vt 0.68435625 0.125
vt 0.8125 0.25314375
vt 0.59375 0.34375
vt 0.4375 0.69064375
vt 0.4375 0.87185625
vt 0.21875 0.78125
vt 0 0.4375
vt 0.1875 0.4375
vt 0.1875 0.5
vt 0 0.5
vt 0.8125 0.25314375
vt 0.8125 0.43435625
vt 0.59375 0.34375
vt 0.30935625 0.5625
vt 0.4375 0.69064375
vt 0.21875 0.78125
vt 0 0.3125
vt 0.1875 0.3125
vt 0.1875 0.375
vt 0 0.375
vt 0.8125 0.43435625
vt 0.68435625 0.5625
vt 0.59375 0.34375
vt 0.12814375 0.5625
vt 0.30935625 0.5625
vt 0.21875 0.78125
vt 0.5 0.6875
vt 0.6875 0.6875
vt 0.6875 0.75
vt 0.5 0.75
vt 0.68435625 0.5625
vt 0.50314375 0.5625
vt 0.59375 0.34375
vt 0 0.69064375
vt 0.12814375 0.5625
vt 0.21875 0.78125
vt 0.75 0.8125
vt 0.9375 0.8125
vt 0.9375 0.875
vt 0.75 0.875
vt 0.50314375 0.5625
vt 0.375 0.43435625
vt 0.59375 0.34375
vt 0 0.87185625
vt 0 0.69064375
vt 0.21875 0.78125
vt 0.5 0.9375
vt 0.6875 0.9375
vt 0.6875 1
vt 0.5 1
vt 0.375 0.43435625
vt 0.375 0.25314375
vt 0.59375 0.34375
vt 0.12814375 1
vt 0 0.87185625
vt 0.21875 0.78125
vt 0.75 0.9375
vt 0.9375 0.9375
vt 0.9375 1
vt 0.75 1
vt 0.375 0.25314375
vt 0.50314375 0.125
vt 0.59375 0.34375
vt 0.30935625 1
vt 0.12814375 1
vt 0.21875 0.78125
vt 0.5 0.8125
vt 0.6875 0.8125
vt 0.6875 0.875
vt 0.5 0.875
vt 0.50314375 0.125
vt 0.68435625 0.125
vt 0.59375 0.34375
vn 0 -1 0
vn 0.7071067811865475 0 0.7071067811865477
vn 0 1 0
vn 0 -1 0
vn 1 0 0
vn 0 1 0
vn 0 -1 0
vn 0.7071067811865477 0 -0.7071067811865475
vn 0 1 0
vn 0 -1 0
vn 1.5316088476051038e-16 0 -1
vn 0 1 0
vn 0 -1 0
vn -0.7071067811865472 0 -0.7071067811865478
vn 0 1 0
vn 0 -1 0
vn -1 0 0
vn 0 1 0
vn 0 -1 0
vn -0.7071067811865478 0 0.7071067811865474
vn 0 1 0
vn 0 -1 0
vn -1.5316088476051023e-16 0 1
vn 0 1 0
usemtl m_2d474877-e3a9-d323-76a3-5794cdb81785
f 5/1/1 3/2/1 1/3/1
f 3/4/2 5/5/2 6/6/2 4/7/2
f 4/8/3 6/9/3 2/10/3
f 7/11/4 5/12/4 1/13/4
f 5/14/5 7/15/5 8/16/5 6/17/5
f 6/18/6 8/19/6 2/20/6
f 9/21/7 7/22/7 1/23/7
f 7/24/8 9/25/8 10/26/8 8/27/8
f 8/28/9 10/29/9 2/30/9
f 11/31/10 9/32/10 1/33/10
f 9/34/11 11/35/11 12/36/11 10/37/11
f 10/38/12 12/39/12 2/40/12
f 13/41/13 11/42/13 1/43/13
f 11/44/14 13/45/14 14/46/14 12/47/14
f 12/48/15 14/49/15 2/50/15
f 15/51/16 13/52/16 1/53/16
f 13/54/17 15/55/17 16/56/17 14/57/17
f 14/58/18 16/59/18 2/60/18
f 17/61/19 15/62/19 1/63/19
f 15/64/20 17/65/20 18/66/20 16/67/20
f 16/68/21 18/69/21 2/70/21
f 3/71/22 17/72/22 1/73/22
f 17/74/23 3/75/23 4/76/23 18/77/23
f 18/78/24 4/79/24 2/80/24