# Made in Blockbench 5.0.5
mtllib Enemy_armor_plate.mtl

o cuboid
v 0.3125 0.6818908773652743 0.2686898816047911
v 0.3125 0.7756408773652743 0.10631011839520887
v 0.3125 0.03237182452694517 -0.10631011839520887
v 0.3125 0.12612182452694515 -0.2686898816047911
v -0.3125 0.6818908773652743 0.2686898816047911
v -0.3125 0.7756408773652743 0.10631011839520887
v -0.3125 0.03237182452694517 -0.10631011839520887
v -0.3125 0.12612182452694515 -0.2686898816047911
vt 0.09375 0.59375
vt 0 0.59375
vt 0 0.21875
vt 0.09375 0.21875
vt 0.21875 0.21875
vt 0.21875 0.59375
vt 0.125 0.59375
vt 0.125 0.21875
vt 0.25 0.5
vt 0.5625 0.5
vt 0.5625 0.59375
vt 0.25 0.59375
vt 0.5625 0.375
vt 0.5625 0.46875
vt 0.25 0.46875
vt 0.25 0.375
vt 0.3125 0.625
vt 0.3125 1
vt 0 1
vt 0 0.625
vt 0.65625 1
vt 0.34375 1
vt 0.34375 0.625
vt 0.65625 0.625
vn 1 0 0
vn -1 0 0
vn 0 0.8660254037844387 0.49999999999999994
vn 0 -0.8660254037844387 -0.49999999999999994
vn 0 -0.49999999999999994 0.8660254037844387
vn 0 0.49999999999999994 -0.8660254037844387
usemtl m_e76e4dc4-6d62-c843-d4b3-309ddacdbb5b
f 2/1/1 1/2/1 3/3/1 4/4/1
f 7/5/2 5/6/2 6/7/2 8/8/2
f 5/9/3 1/10/3 2/11/3 6/12/3
f 4/13/4 3/14/4 7/15/4 8/16/4
f 3/17/5 1/18/5 5/19/5 7/20/5
f 6/21/6 2/22/6 4/23/6 8/24/6